<?xml version="1.0" encoding="utf-8"?>
<!-- Generator: Adobe Illustrator 23.0.3, SVG Export Plug-In . SVG Version: 6.00 Build 0)  -->
<svg version="1.1" id="Calque_1" xmlns="http://www.w3.org/2000/svg" xmlns:xlink="http://www.w3.org/1999/xlink" x="0px" y="0px"
	 viewBox="0 0 1400 883.7" style="enable-background:new 0 0 1400 883.7;" xml:space="preserve">
<style type="text/css">
	.st0{fill:#FFFFFF;stroke:#000000;stroke-miterlimit:10;}
	.st1{fill:#019C86;}
</style>
<path class="st0" d="M1,341.9"/>
<path class="st1" d="M0,322.9c0,0,246-162.4,449-125c141,26,199,128,375,144s577-154,576-150s0,0,0,0v375c0,0-121.8,31.8-251.9,58.9
	c-66.4,13.8-185.9,32.2-302.1,31.1c-332.4-3-403.3-180.8-588-114c-64.9,23.5-169.3,86.4-258,163c-62.9,54.4-89.9,91.4-106,84
	C-128.5,779.5-122.5,685.4,0,322.9z"/>
</svg>
